<?xml version="1.0" standalone="no"?>
<!DOCTYPE svg PUBLIC "-//W3C//DTD SVG 20010904//EN"
 "http://www.w3.org/TR/2001/REC-SVG-20010904/DTD/svg10.dtd">
<svg version="1.0" xmlns="http://www.w3.org/2000/svg"
 width="362.000000pt" height="362.000000pt" viewBox="0 0 362.000000 362.000000"
 preserveAspectRatio="xMidYMid meet">
<metadata>
Created by potrace 1.14, written by Peter Selinger 2001-2017
</metadata>
<g transform="translate(0.000000,362.000000) scale(0.100000,-0.100000)"
fill="#000000" stroke="none">
<path d="M904 3417 c-2 -7 -3 -76 -2 -152 l3 -140 67 -3 68 -3 2 -322 3 -322
150 0 150 0 0 475 0 475 -218 3 c-173 2 -219 0 -223 -11z"/>
<path d="M1547 3423 c-4 -3 -7 -68 -7 -143 0 -102 3 -140 13 -149 9 -7 104
-12 282 -13 l268 -3 -291 -310 c-160 -170 -288 -313 -284 -316 4 -4 108 -9
232 -11 214 -4 229 -6 305 -32 148 -51 253 -130 334 -252 75 -112 104 -210
105 -354 1 -192 -52 -320 -188 -455 -129 -128 -270 -185 -456 -185 -181 0
-333 62 -460 190 -122 121 -182 269 -182 445 0 139 32 249 107 360 30 45 39
67 32 74 -7 7 -71 11 -172 11 -190 0 -180 5 -225 -119 -87 -238 -76 -491 29
-717 23 -47 60 -114 85 -147 51 -72 180 -199 249 -246 68 -47 221 -117 294
-136 136 -34 353 -37 461 -6 37 11 40 18 -31 -89 -125 -187 -386 -512 -495
-614 -54 -50 -36 -56 178 -56 l189 0 66 78 c244 284 474 637 650 997 162 332
191 435 182 649 -7 200 -63 361 -178 517 -100 135 -281 279 -410 325 -27 10
-49 23 -48 28 0 6 141 160 313 341 173 182 312 333 309 338 -5 9 -1247 10
-1256 0z"/>
</g>
</svg>
